<?xml version="1.0" encoding="utf-8"?>
<!-- Generator: Adobe Illustrator 22.0.1, SVG Export Plug-In . SVG Version: 6.00 Build 0)  -->
<svg version="1.1" id="Final" xmlns="http://www.w3.org/2000/svg" xmlns:xlink="http://www.w3.org/1999/xlink" x="0px" y="0px"
	 viewBox="0 0 153 174.3" style="enable-background:new 0 0 153 174.3;" xml:space="preserve">
<style type="text/css">
	.st0{fill:#2C839A;}
	.st1{fill:#40B299;}
	.st2{fill:#1FB0E6;}
	.st3{fill:#6CCEF5;}
	.st4{fill:#BBD631;}
	.st5{fill:#49B749;}
	.st6{fill:#1993D2;}
	.st7{fill:#FFFFFF;}
	.st8{fill:#C5C7C9;}
	.st9{fill:#F0F1F1;}
	.st10{fill:#DCDDDE;}
	.st11{fill:#DEDFE1;}
	.st12{fill:#CBCDCF;}
	.st13{fill:#EBECED;}
	.st14{fill:#D9DADC;}
</style>
<g>
	<g>
		<g>
			<polyline class="st0" points="75.5,58.4 75.5,0 0,43.6 50.6,72.8 75.5,58.4 			"/>
			<polyline class="st1" points="50.6,72.8 50.6,72.8 0,43.6 0,87.2 50.6,87.2 50.6,72.8 			"/>
			<polyline class="st2" points="100.4,72.8 100.4,87.2 151,87.2 151,43.6 100.4,72.8 100.4,72.8 			"/>
			<polyline class="st3" points="100.4,72.8 151,43.6 75.5,0 75.5,58.4 100.4,72.8 			"/>
			<polygon class="st4" points="50.6,87.2 0,87.2 0,130.7 50.6,101.5 			"/>
			<polyline class="st5" points="50.6,101.5 50.6,101.5 0,130.7 75.5,174.3 75.5,115.9 50.6,101.5 			"/>
			<polyline class="st6" points="100.4,87.2 100.4,101.5 75.5,115.9 75.5,174.3 151,130.7 151,87.2 100.4,87.2 			"/>
			<polyline class="st7" points="75.5,87.2 75.5,87.2 75.5,87.2 75.5,87.2 			"/>
			<polyline class="st8" points="75.5,58.4 75.5,58.4 50.6,72.8 75.5,87.2 75.5,87.2 75.5,58.4 			"/>
			<polyline class="st9" points="75.5,58.4 75.5,87.2 100.4,72.8 75.5,58.4 			"/>
			<polyline class="st10" points="50.6,72.8 50.6,72.8 50.6,72.8 50.6,87.2 75.5,87.2 50.6,72.8 			"/>
			<polyline class="st11" points="100.4,72.8 100.4,72.8 75.5,87.2 75.5,87.2 100.4,87.2 100.4,72.8 100.4,72.8 			"/>
			<polyline class="st12" points="100.4,87.2 75.5,87.2 75.5,87.2 75.5,115.9 100.4,101.5 100.4,87.2 			"/>
			<polyline class="st13" points="75.5,87.2 50.6,87.2 50.6,101.5 75.5,87.2 			"/>
			<polyline class="st14" points="75.5,87.2 75.5,87.2 50.6,101.5 50.6,101.5 75.5,115.9 75.5,87.2 75.5,87.2 			"/>
		</g>
	</g>
</g>
</svg>
